<svg width="64" height="64" viewBox="0 0 64 64" fill="none" xmlns="http://www.w3.org/2000/svg">
<path d="M27.0001 36.0001C27.0001 36.5935 26.8241 37.1735 26.4945 37.6669C26.1648 38.1602 25.6963 38.5447 25.1481 38.7718C24.5999 38.9988 23.9967 39.0583 23.4148 38.9425C22.8329 38.8267 22.2983 38.541 21.8787 38.1215C21.4592 37.7019 21.1735 37.1674 21.0577 36.5854C20.942 36.0035 21.0014 35.4003 21.2284 34.8521C21.4555 34.3039 21.84 33.8354 22.3334 33.5057C22.8267 33.1761 23.4067 33.0001 24.0001 33.0001C24.7957 33.0001 25.5588 33.3162 26.1214 33.8788C26.684 34.4414 27.0001 35.2045 27.0001 36.0001ZM40.0001 33.0001C39.4067 33.0001 38.8267 33.1761 38.3334 33.5057C37.84 33.8354 37.4555 34.3039 37.2284 34.8521C37.0014 35.4003 36.942 36.0035 37.0577 36.5854C37.1735 37.1674 37.4592 37.7019 37.8787 38.1215C38.2983 38.541 38.8329 38.8267 39.4148 38.9425C39.9967 39.0583 40.5999 38.9988 41.1481 38.7718C41.6963 38.5447 42.1648 38.1602 42.4945 37.6669C42.8241 37.1735 43.0001 36.5935 43.0001 36.0001C43.0001 35.2045 42.684 34.4414 42.1214 33.8788C41.5588 33.3162 40.7957 33.0001 40.0001 33.0001ZM60.6026 46.6336C56.4583 50.2356 50.8868 52.9661 44.4901 54.5299C44.1778 54.6064 43.8575 54.6452 43.5361 54.6454C42.7955 54.6442 42.07 54.4361 41.4414 54.0446C40.8128 53.653 40.3061 53.0936 39.9786 52.4294L37.6061 47.6844C35.7448 47.895 33.8732 48.0004 32.0001 48.0001C30.127 48.0004 28.2553 47.895 26.3941 47.6844L24.0216 52.4294C23.694 53.0936 23.1873 53.653 22.5587 54.0445C21.9301 54.4361 21.2046 54.6442 20.4641 54.6454C20.1426 54.6452 19.8223 54.6064 19.5101 54.5299C13.1133 52.9659 7.54182 50.2356 3.39807 46.6339C2.81442 46.1278 2.38884 45.4643 2.17219 44.7228C1.95553 43.9813 1.95697 43.1931 2.17632 42.4524L10.6701 14.1406C10.8402 13.5699 11.136 13.0445 11.5356 12.603C11.9353 12.1615 12.4288 11.8151 12.9798 11.5891C15.4885 10.5619 18.0831 9.75833 20.7333 9.18789C21.6984 8.97585 22.7077 9.12863 23.5668 9.61677C24.4259 10.1049 25.0738 10.8938 25.3856 11.8314L26.8638 16.2661C30.279 15.9116 33.7217 15.9116 37.1368 16.2661L38.6151 11.8314C38.927 10.8939 39.5749 10.1051 40.4338 9.61702C41.2928 9.1289 42.3021 8.97604 43.2671 9.18789C45.9175 9.75833 48.5124 10.562 51.0213 11.5894C51.5723 11.8153 52.0656 12.1617 52.4652 12.6032C52.8648 13.0447 53.1605 13.57 53.3306 14.1406L61.8241 42.4524C62.0435 43.193 62.0449 43.9812 61.8283 44.7227C61.6117 45.4642 61.1862 46.1276 60.6026 46.6336ZM57.9783 43.6149L49.4991 15.2899C47.2078 14.3509 44.8378 13.617 42.4168 13.0966L41.1586 16.8576C42.8019 17.1709 44.4244 17.5851 46.0168 18.0976C46.5214 18.2614 46.9403 18.6189 47.1813 19.0914C47.4223 19.564 47.4657 20.1129 47.3019 20.6175C47.1382 21.1221 46.7807 21.541 46.3082 21.782C45.8356 22.023 45.2866 22.0664 44.7821 21.9026C40.9471 20.6576 36.5271 20.0001 32.0001 20.0001C27.4741 20.0001 23.0538 20.6576 19.2176 21.9026C18.713 22.0663 18.1641 22.0228 17.6915 21.7818C17.219 21.5407 16.8616 21.1218 16.6979 20.6173C16.5343 20.1127 16.5777 19.5638 16.8188 19.0912C17.0599 18.6187 17.4787 18.2613 17.9833 18.0976C19.5766 17.5849 21.1999 17.1706 22.8441 16.8571L21.5906 13.0966C19.1686 13.6157 16.7975 14.3486 14.5051 15.2866L6.00757 43.6016C9.68707 46.8004 14.6796 49.2311 20.4601 50.6441L22.2581 47.0261C20.8137 46.7299 19.3866 46.3548 17.9833 45.9024C17.483 45.7353 17.069 45.3773 16.8314 44.9064C16.5938 44.4355 16.5518 43.8897 16.7147 43.388C16.8775 42.8863 17.2319 42.4693 17.7008 42.2276C18.1696 41.986 18.715 41.9394 19.2181 42.0979C23.0531 43.3424 27.4731 44.0001 32.0001 44.0001C36.5268 44.0001 40.9468 43.3426 44.7821 42.0976C45.2866 41.9339 45.8356 41.9774 46.3081 42.2184C46.7807 42.4594 47.1381 42.8783 47.3018 43.3829C47.4655 43.8875 47.4221 44.4364 47.181 44.909C46.94 45.3815 46.5211 45.7389 46.0166 45.9026C44.6154 46.3543 43.1906 46.7289 41.7486 47.0249L43.5561 50.6404C49.3206 49.2311 54.3131 46.8004 57.9783 43.6149V43.6149Z" fill="white"/>
</svg>
