<svg id="Camada_1" data-name="Camada 1" xmlns="http://www.w3.org/2000/svg" viewBox="0 0 505 180"><title>Logo</title><path d="M413.89,101.74a34.73,34.73,0,0,0,49.13,0L438.45,77.18Z" style="fill:#f6b058"/><path d="M413.89,52.62a34.72,34.72,0,0,0,0,49.12l24.56-24.56Z" style="fill:#a8bbc6"/><path d="M438.47,77.16a34.73,34.73,0,0,0,0-49.13L413.91,52.6Z" style="fill:#fff"/><path d="M463,101.72a34.74,34.74,0,0,0,0-49.12L438.47,77.16Z" style="fill:#f07e25"/><path d="M43.35,86.34H58.58v53.42h33v12.41H43.35Z" style="fill:#fff"/><path d="M138.14,106.42q6.3,5.6,6.31,16.88v28.87H130.72v-6.3q-4.14,7-15.43,7a24,24,0,0,1-10.11-2,15.08,15.08,0,0,1-6.53-5.46,14.15,14.15,0,0,1-2.26-7.9,13.17,13.17,0,0,1,5.31-11.09q5.31-4.05,16.41-4h11.66q0-4.8-2.91-7.38c-2-1.72-4.86-2.59-8.75-2.59a25.7,25.7,0,0,0-7.94,1.27,20.77,20.77,0,0,0-6.63,3.44l-5.27-10.26a32,32,0,0,1,9.92-4.51,44.7,44.7,0,0,1,11.9-1.6Q131.84,100.82,138.14,106.42Zm-12.5,34.89a9.5,9.5,0,0,0,4.13-5.13V131H119.71q-9,0-9,5.92a5.27,5.27,0,0,0,2.21,4.47,10,10,0,0,0,6.07,1.65A12.8,12.8,0,0,0,125.64,141.31Z" style="fill:#fff"/><path d="M200.45,104.07a23.26,23.26,0,0,1,9.07,9.12,30.11,30.11,0,0,1,0,27.37,23.39,23.39,0,0,1-9.07,9.12,25.84,25.84,0,0,1-12.84,3.24q-10.44,0-15.89-6.58v5.83h-14V82.39h14.67v24.54q5.53-6.11,15.23-6.11A25.74,25.74,0,0,1,200.45,104.07Zm-6.12,33q3.63-3.81,3.63-10.21t-3.63-10.2a13.16,13.16,0,0,0-18.52,0q-3.63,3.81-3.62,10.2t3.62,10.21a13.18,13.18,0,0,0,18.52,0Z" style="fill:#fff"/><path d="M271.87,131H233.6a11.92,11.92,0,0,0,4.89,7.43,16.19,16.19,0,0,0,9.59,2.73,19.33,19.33,0,0,0,7-1.18,17.06,17.06,0,0,0,5.69-3.71l7.8,8.46q-7.14,8.19-20.88,8.18a33,33,0,0,1-15.14-3.34,24.39,24.39,0,0,1-10.15-9.26,25.45,25.45,0,0,1-3.58-13.45,25.87,25.87,0,0,1,3.53-13.4,24.72,24.72,0,0,1,9.69-9.31,30,30,0,0,1,27.22-.14,23.36,23.36,0,0,1,9.45,9.17,27.31,27.31,0,0,1,3.43,13.87C272.15,127.25,272.06,128.57,271.87,131Zm-34.32-16.27a12,12,0,0,0-4.14,7.71h24.92a12.09,12.09,0,0,0-4.14-7.66,12.35,12.35,0,0,0-8.27-2.87A12.61,12.61,0,0,0,237.55,114.74Z" style="fill:#fff"/><path d="M327.88,106.46q5.78,5.66,5.78,16.74v29H319V125.46q0-6-2.64-9t-7.61-3A11.66,11.66,0,0,0,299.9,117q-3.3,3.43-3.29,10.2v25H281.94v-50.6h14v5.93a19.4,19.4,0,0,1,7.24-4.94,25.21,25.21,0,0,1,9.5-1.74Q322.09,100.82,327.88,106.46Z" style="fill:#fff"/><path d="M397.89,101.57v50.6H384v-6a19.32,19.32,0,0,1-7,5,21.86,21.86,0,0,1-8.74,1.74q-10,0-15.8-5.73t-5.83-17V101.57h14.67V128q0,12.23,10.25,12.23a11,11,0,0,0,8.46-3.44c2.13-2.28,3.2-5.69,3.2-10.2v-25Z" style="fill:#fff"/><rect x="415.48" y="138.13" width="45.2" height="14.06" style="fill:#fff"/></svg>