<svg width="90" height="35" viewBox="0 0 90 35" fill="none" xmlns="http://www.w3.org/2000/svg">
<path d="M5.15762 15.8137C5.10397 15.8247 5.02075 15.8441 5.02075 15.8441L4.95992 15.8593L4.73179 15.9202L4.64054 15.9506L4.5645 15.981L4.42763 16.0418L4.32117 16.1027L4.15388 16.2091L3.98659 16.3612L3.83451 16.5437L3.71284 16.7414L3.62159 16.9239L3.53034 17.152L3.4543 17.3954C3.4543 17.3954 3.41162 17.5424 3.39347 17.6387C3.37682 17.727 3.37504 17.7778 3.36305 17.8668C3.34547 17.9975 3.33137 18.0703 3.31743 18.2014C3.29793 18.3849 3.2964 18.4886 3.28701 18.6729C3.27945 18.8213 3.27774 18.9046 3.2718 19.0531C3.26587 19.2015 3.26063 19.2847 3.2566 19.4333C3.24805 19.7479 3.2566 19.9245 3.2566 20.2393V20.9085V21.5168V22.3155V22.6726L3.28701 23.281L3.30222 23.5547C3.30222 23.5547 3.32939 24.0207 3.37826 24.3151C3.40306 24.4645 3.41267 24.5497 3.4543 24.6953C3.49979 24.8544 3.53372 24.9421 3.60639 25.0907C3.65427 25.1887 3.68194 25.2439 3.74326 25.3341C3.77666 25.3832 3.79711 25.4096 3.83451 25.4557C3.87955 25.5113 3.90444 25.5432 3.95617 25.5926C4.0112 25.6451 4.04567 25.6711 4.10826 25.7143C4.17615 25.7612 4.29076 25.8207 4.29076 25.8207L4.50367 25.9272L4.77742 26.0336L5.09679 26.1249L5.40096 26.1857L5.6595 26.2161L6.14616 26.2618L6.84574 26.3074C6.84574 26.3074 7.476 26.32 7.8799 26.3226C8.20061 26.3247 8.38049 26.3292 8.70114 26.3226C9.09345 26.3146 9.31301 26.2972 9.70488 26.277C10.1148 26.2558 10.3449 26.2464 10.7543 26.2161C11.3136 26.1748 11.6258 26.1354 12.1838 26.0793C12.4155 26.056 12.7769 26.0184 12.7769 26.0184V28.5278V28.543C12.7769 28.543 12.6657 28.5617 12.5944 28.5734C12.4461 28.5978 12.363 28.6125 12.2142 28.6343C12.0325 28.6608 11.9293 28.673 11.7485 28.6944L11.7428 28.6951C11.5174 28.7218 11.3904 28.7307 11.1649 28.7559C10.9628 28.7785 10.8499 28.7945 10.6478 28.8168C10.4757 28.8357 10.3791 28.8461 10.2068 28.8624C9.99315 28.8826 9.87324 28.8923 9.65926 28.908C9.47525 28.9215 9.37198 28.9276 9.1878 28.9384C8.95627 28.952 8.8264 28.9587 8.59468 28.9688C8.4403 28.9756 8.35379 28.9825 8.19927 28.984C8.14582 28.9846 8.0624 28.984 8.0624 28.984C8.0624 28.984 7.72878 28.9968 7.5149 28.9993C7.36643 29.0009 7.28317 28.9993 7.13469 28.9993C7.05748 28.9993 7.01419 28.9997 6.93699 28.9993C6.68154 28.9979 6.53849 28.9844 6.28303 28.984H6.23741C6.10068 28.9834 6.08361 28.9807 5.88762 28.9688L5.38575 28.9384C5.18975 28.9265 5.18177 28.9205 5.05117 28.908C4.93233 28.8966 4.86561 28.8911 4.747 28.8776C4.61013 28.862 4.53354 28.8518 4.39721 28.832C4.28416 28.8155 4.22101 28.8047 4.10826 28.7863C4.03695 28.7747 3.99676 28.7693 3.92576 28.7559C3.84219 28.7402 3.79563 28.7297 3.71284 28.7103C3.59924 28.6836 3.53621 28.6659 3.42389 28.6343C3.28644 28.5956 3.20961 28.5728 3.0741 28.5278C2.97248 28.4941 2.91545 28.4751 2.81556 28.4365C2.6147 28.359 2.50358 28.3099 2.31369 28.2084C2.22922 28.1633 2.10077 28.0868 2.10077 28.0868C2.10077 28.0868 1.93007 27.981 1.82702 27.9043C1.7087 27.8161 1.64655 27.7609 1.53807 27.6609C1.43925 27.5698 1.38417 27.5179 1.29474 27.4176C1.18637 27.2961 1.13284 27.2201 1.04015 27.0886L1.0362 27.083C0.954571 26.9672 0.910022 26.9011 0.838488 26.7788C0.767396 26.6573 0.7305 26.5872 0.671198 26.4595C0.603992 26.3148 0.573476 26.2301 0.519477 26.0803L0.519116 26.0793C0.4516 25.8919 0.417956 25.7851 0.367033 25.5926C0.31728 25.4045 0.296658 25.2971 0.260576 25.1059C0.233775 24.9639 0.221427 24.8838 0.199743 24.7409C0.172771 24.5632 0.157756 24.4635 0.13891 24.2847C0.123914 24.1425 0.120372 24.0622 0.108494 23.9197C0.0906761 23.7059 0.0775028 23.5863 0.062869 23.3722C0.0474543 23.1467 0.0411614 23.0201 0.0324526 22.7943C0.0214648 22.5094 0.0224244 22.3494 0.0172443 22.0643C0.00969097 21.6486 0.00408976 21.4155 0.00203612 20.9997C0.000950729 20.78 -0.00194498 20.6567 0.00203612 20.437C0.00720527 20.1517 0.0204467 19.9921 0.0324526 19.707C0.0442087 19.4279 0.0461212 19.2711 0.062869 18.9922C0.0771496 18.7544 0.088061 18.6213 0.108494 18.3839C0.13409 18.0866 0.146678 17.9195 0.184535 17.6235C0.210425 17.421 0.224465 17.3073 0.260576 17.1064C0.300353 16.8851 0.323704 16.7608 0.382242 16.5437C0.419419 16.4058 0.444229 16.3296 0.488699 16.1939C0.543696 16.0261 0.57393 15.9315 0.640781 15.7681C0.685071 15.6598 0.711249 15.5995 0.762447 15.4943C0.812444 15.3916 0.851808 15.319 0.899321 15.2358L1.02099 15.0229C1.0685 14.9397 1.12087 14.8823 1.18828 14.7948C1.26298 14.6978 1.30389 14.6423 1.38598 14.5514C1.46483 14.4642 1.5989 14.3385 1.5989 14.3385L1.67494 14.2625C1.67494 14.2625 1.77492 14.1765 1.84223 14.1256C1.91712 14.0689 1.96185 14.0409 2.03994 13.9887C2.12214 13.9338 2.16762 13.9019 2.25285 13.8519C2.33991 13.8007 2.39064 13.7753 2.48098 13.7302C2.56894 13.6863 2.61879 13.6626 2.7091 13.6237C2.81447 13.5784 2.87495 13.5562 2.98285 13.5173C3.08885 13.479 3.14375 13.4557 3.2566 13.426L3.54555 13.35C3.6584 13.3203 3.73026 13.3008 3.84972 13.2739C3.96791 13.2474 4.03466 13.2345 4.15388 13.2131C4.30765 13.1855 4.39474 13.1751 4.54929 13.1523C4.67393 13.1339 4.74361 13.122 4.86867 13.1067C5.06401 13.0827 5.17434 13.0764 5.37054 13.061C5.54857 13.0471 5.64848 13.0403 5.82679 13.0306C5.95739 13.0235 6.03067 13.0206 6.16137 13.0154C6.3573 13.0077 6.66324 13.0002 6.66324 13.0002H7.10428C7.16367 13.0002 7.19697 12.9998 7.25636 13.0002C7.4465 13.0016 7.55302 13.0081 7.74302 13.0154C7.87965 13.0206 7.95633 13.0223 8.09281 13.0306C8.24149 13.0397 8.32466 13.0477 8.47302 13.061C8.69904 13.0814 8.826 13.0917 9.05093 13.1219C9.20578 13.1426 9.29265 13.1546 9.44634 13.1827C9.61365 13.2132 9.70634 13.2362 9.87217 13.2739C10.0449 13.3133 10.1428 13.3317 10.3132 13.3804C10.427 13.4129 10.4904 13.4327 10.6022 13.4717C10.7407 13.52 10.8175 13.5499 10.952 13.6085C11.0543 13.6531 11.1118 13.6782 11.2105 13.7302C11.3331 13.7947 11.3997 13.8354 11.5147 13.9127C11.6063 13.9743 11.6577 14.0096 11.7428 14.08C11.8108 14.1363 11.8447 14.1727 11.9101 14.2321C11.9754 14.2915 12.0162 14.3205 12.0774 14.3841C12.1417 14.451 12.1714 14.4943 12.2294 14.5666C12.2904 14.6426 12.325 14.6851 12.3815 14.7644C12.4313 14.8341 12.4591 14.8734 12.5032 14.9468C12.5415 15.0107 12.5601 15.0481 12.5944 15.1141C12.6251 15.173 12.6422 15.2061 12.6705 15.2662C12.6954 15.3192 12.7313 15.4031 12.7313 15.4031L12.7465 15.4335C12.7465 15.4335 12.7755 15.4979 12.7922 15.54C12.8268 15.6273 12.8682 15.7681 12.8682 15.7681L12.9594 16.0418C12.9594 16.0418 12.9988 16.171 13.0203 16.2548C13.04 16.3315 13.0659 16.4525 13.0659 16.4525C13.0659 16.4525 13.0933 16.5823 13.1115 16.6654C13.1232 16.7189 13.1309 16.7486 13.1419 16.8023C13.1722 16.9495 13.2028 17.1825 13.2028 17.1825L13.2788 17.8516L13.3396 18.7945C13.3396 18.7945 13.3679 19.3041 13.3701 19.631C13.3705 19.7023 13.3701 19.8135 13.3701 19.8135L13.3853 20.361V20.8781V21.2887V22.0643H11.0888H10.4045H10.2828V21.897V21.6689V21.2735V20.8781V20.5891V20.2089V19.8743C10.2828 19.8743 10.2853 19.6426 10.2828 19.4941C10.28 19.3277 10.2676 19.0683 10.2676 19.0683L10.2524 18.6881L10.222 18.3687C10.222 18.3687 10.1997 18.1362 10.1763 17.9885C10.1565 17.8631 10.1405 17.7936 10.1155 17.6691C10.0928 17.5561 10.0817 17.4923 10.0547 17.3802C10.033 17.2905 10.0226 17.2397 9.99384 17.152C9.96807 17.0734 9.94807 17.0313 9.9178 16.9543C9.89439 16.8948 9.85697 16.8023 9.85697 16.8023C9.85697 16.8023 9.79618 16.6885 9.75051 16.6198C9.69659 16.5386 9.59843 16.422 9.59843 16.422L9.40072 16.2243C9.40072 16.2243 9.34649 16.1763 9.30947 16.1483C9.24767 16.1016 9.20972 16.0797 9.14218 16.0418C9.08427 16.0094 9.05095 15.9924 8.9901 15.9658C8.90919 15.9305 8.86162 15.9156 8.77718 15.8898C8.68351 15.8611 8.53385 15.8289 8.53385 15.8289L8.21448 15.7681L7.8799 15.7225L7.5149 15.6921C7.5149 15.6921 7.26472 15.6798 7.10428 15.6768C6.94395 15.6739 6.85399 15.6744 6.69365 15.6768C6.50946 15.6796 6.40616 15.6825 6.2222 15.6921L6.21997 15.6922C6.12582 15.6971 6.04369 15.7014 5.97887 15.7073C5.97887 15.7073 5.87688 15.7162 5.81158 15.7225C5.75216 15.7282 5.7188 15.7309 5.6595 15.7377C5.6595 15.7377 5.58529 15.7465 5.53783 15.7529C5.49621 15.7585 5.47295 15.7622 5.43137 15.7681C5.3898 15.774 5.3664 15.7768 5.32491 15.7833C5.25933 15.7937 5.22269 15.8005 5.15762 15.8137Z" fill="white"/>
<g opacity="0.9" filter="url(#filter0_b_650_93)">
<path d="M1.83393 22.2487L1.7041 22.279L1.47328 22.3398C1.47328 22.3398 1.34013 22.3852 1.3146 22.4613C1.29958 22.506 1.3146 22.5827 1.3146 22.5827L1.34345 22.7042L1.38673 22.9168L1.43 23.1142L1.45886 23.2357L1.50213 23.4331L1.54541 23.6305L1.58869 23.828L1.63197 24.0254L1.66082 24.162L1.7041 24.3594L1.7618 24.6176L1.79065 24.7391C1.79065 24.7391 1.80845 24.8008 1.83393 24.8302C1.87135 24.8733 1.90903 24.9005 1.96377 24.8909C2.05033 24.8758 2.16573 24.8454 2.16573 24.8454L2.4254 24.7846L2.62736 24.7391L2.95916 24.6632L3.21883 24.6024L3.47849 24.5417L3.81029 24.4657L4.12766 24.3898L4.32963 24.3443L4.53159 24.2987L4.73355 24.2531L5.05093 24.1772L5.38272 24.1013L5.64239 24.0405L5.91648 23.9798L6.16173 23.9191L6.49352 23.8431L6.75319 23.7824L7.15712 23.6913L7.47449 23.6154L7.82071 23.5394L8.08038 23.4787L8.34005 23.4179L8.52759 23.3724L8.72955 23.3268L8.93152 23.2813L9.11905 23.2357L9.32102 23.1902L9.50855 23.1446L9.71052 23.099L9.91248 23.0535L10.1144 23.0079L10.3741 22.9472L10.5761 22.9016L10.8357 22.8409L11.0233 22.7953L11.283 22.7346L11.4849 22.689L11.6869 22.6435L11.9465 22.5827L12.2062 22.522L12.538 22.4461L12.7977 22.3853C12.7977 22.3853 12.8554 22.3701 12.8987 22.355C12.9521 22.3362 12.9734 22.2915 12.9852 22.2335C12.9911 22.2045 12.9852 22.1575 12.9852 22.1575L12.9275 21.8538L12.8698 21.5501L12.7977 21.1553L12.74 20.8516L12.6823 20.5327L12.6246 20.229L12.5669 19.9253L12.538 19.8038C12.5245 19.7468 12.4899 19.716 12.437 19.6975C12.3996 19.6844 12.336 19.6975 12.336 19.6975L12.2639 19.7127L12.0331 19.7734L11.658 19.8645L11.2541 19.9556L10.8357 20.0619L10.6482 20.1075L10.5184 20.1379L10.3308 20.1834L10.1433 20.229L9.95576 20.2745L9.82593 20.3049L9.63839 20.3505L9.45085 20.396L9.26331 20.4416L9.07578 20.4871L8.88824 20.5327L8.7007 20.5782L8.51316 20.6238L8.26792 20.6845L8.02268 20.7453L7.76301 20.806L7.57547 20.8516L7.33023 20.9123L7.08499 20.9731L6.82532 21.0338L6.52238 21.1097L6.39254 21.1401L6.205 21.1857L6.01747 21.2312L5.82993 21.2768L5.64239 21.3223L5.45485 21.3679L5.26732 21.4135L5.07978 21.459L4.83454 21.5197L4.647 21.5653L4.45946 21.6109L4.32963 21.6412L4.14209 21.6868L3.83914 21.7627L3.57948 21.8235L3.2044 21.9146L2.95916 21.9753L2.64179 22.0512L2.39655 22.112L2.20901 22.1575L2.02147 22.2031L1.83393 22.2487Z" fill="white" fill-opacity="0.8"/>
</g>
<path d="M19.0781 29H22.5781V19.5625H32.2656V16.6094H22.5781V9.46875H33.1562V6.45312H19.0781V29ZM35.7969 29H39.1719V19.2031C39.1719 16.75 40.5156 15.3281 42.6875 15.3281C43.3438 15.3281 43.9375 15.4062 44.2031 15.5156V12.375C43.9375 12.3281 43.5156 12.25 43.0312 12.25C41.1562 12.25 39.7812 13.4531 39.25 15.375H39.1719V12.5625H35.7969V29ZM52.6406 29.3281C57.3438 29.3281 60.4375 26.0781 60.4375 20.7812V20.75C60.4375 15.4844 57.3125 12.25 52.625 12.25C47.9531 12.25 44.8438 15.5 44.8438 20.75V20.7812C44.8438 26.0625 47.9219 29.3281 52.6406 29.3281ZM52.6562 26.5C50.0156 26.5 48.2969 24.4219 48.2969 20.7812V20.75C48.2969 17.1562 50.0312 15.0781 52.625 15.0781C55.2656 15.0781 56.9844 17.1562 56.9844 20.75V20.7812C56.9844 24.4062 55.2969 26.5 52.6562 26.5ZM63.0469 29H66.4219V19.4219C66.4219 16.8594 67.9531 15.1406 70.3281 15.1406C72.6719 15.1406 73.8281 16.5312 73.8281 19V29H77.2188V18.3594C77.2188 14.5781 75.1406 12.25 71.5312 12.25C69.0469 12.25 67.3594 13.375 66.5 15.0469H66.4219V12.5625H63.0469V29ZM86.25 29.3281C86.9375 29.3281 87.5781 29.25 87.9688 29.1875V26.5781C87.7188 26.6094 87.4219 26.6406 87.0625 26.6406C85.6406 26.6406 84.8906 26.1406 84.8906 24.4688V15.25H87.9688V12.5625H84.8906V8.28125H81.4375V12.5625H79.0781V15.25H81.4375V24.6719C81.4375 27.9531 83 29.3281 86.25 29.3281Z" fill="white"/>
<defs>
<filter id="filter0_b_650_93" x="-6.69208" y="11.6917" width="27.6799" height="21.2012" filterUnits="userSpaceOnUse" color-interpolation-filters="sRGB">
<feFlood flood-opacity="0" result="BackgroundImageFix"/>
<feGaussianBlur in="BackgroundImageFix" stdDeviation="4"/>
<feComposite in2="SourceAlpha" operator="in" result="effect1_backgroundBlur_650_93"/>
<feBlend mode="normal" in="SourceGraphic" in2="effect1_backgroundBlur_650_93" result="shape"/>
</filter>
</defs>
</svg>
